<?xml version="1.0" encoding="UTF-8" standalone="no"?>
<svg
   xmlns:dc="http://purl.org/dc/elements/1.1/"
   xmlns:cc="http://creativecommons.org/ns#"
   xmlns:rdf="http://www.w3.org/1999/02/22-rdf-syntax-ns#"
   xmlns:svg="http://www.w3.org/2000/svg"
   xmlns="http://www.w3.org/2000/svg"
   viewBox="0 0 1600 900"
   height="900"
   width="1600"
   xml:space="preserve"
   id="svg2"
   version="1.1"><metadata
     id="metadata8"><rdf:RDF><cc:Work
         rdf:about=""><dc:format>image/svg+xml</dc:format><dc:type
           rdf:resource="http://purl.org/dc/dcmitype/StillImage" /></cc:Work></rdf:RDF></metadata><defs
     id="defs6"><clipPath
       id="clipPath18"
       clipPathUnits="userSpaceOnUse"><path
         id="path16"
         d="M 0,675 H 1200 V 0 H 0 Z" /></clipPath></defs><g
     transform="matrix(1.3333333,0,0,-1.3333333,0,900)"
     id="g10"><g
       id="g12"><g
         clip-path="url(#clipPath18)"
         id="g14"><g
           transform="translate(621.4218,357.2131)"
           id="g20"><path
             id="path22"
             style="fill:#ffffff;fill-opacity:1;fill-rule:nonzero;stroke:none"
             d="m 0,0 c -6.068,-5.237 -11.793,-10.148 -17.48,-15.103 -2.153,-1.877 -4.492,-3.634 -6.271,-5.83 -5.462,-6.747 -8.108,-14.363 -8.8,-23.241 -0.726,-9.304 0.456,-17.758 4.871,-25.859 4.894,-8.981 13.7,-12.084 23.114,-8.292 3.42,1.378 4.942,3.457 4.938,7.339 C 0.35,-48.812 0.579,-26.637 0.673,-4.462 0.679,-3.05 0.257,-1.635 0,0 m 48.898,-25.518 c 2.05,1.389 3.364,2.012 4.334,2.98 6.092,6.08 12.23,12.123 18.06,18.448 1.454,1.577 2.555,4.135 2.586,6.26 0.24,16.347 0.27,32.699 0.131,49.047 -0.029,3.476 0.693,4.81 4.494,4.67 9.23,-0.341 18.478,-0.196 27.718,-0.265 8.48,-0.063 14.776,-3.205 17.019,-12.079 0.141,-0.558 0.601,-1.035 0.927,-1.573 5.494,3.438 10.621,7.259 16.253,10.064 25.179,12.539 58.433,8.618 74.543,-22.293 8.195,-15.724 9.837,-32.795 10.128,-50.128 0.312,-18.59 -2.946,-36.324 -13.278,-52.146 -9.425,-14.434 -22.934,-22.535 -40.049,-24.65 -16.014,-1.979 -30.559,2.933 -44.761,9.483 -0.971,0.447 -1.944,0.892 -3.511,1.611 -0.149,-1.867 -0.341,-3.16 -0.343,-4.454 -0.037,-22.597 -0.345,-45.2 0.051,-67.791 0.213,-12.18 -6.471,-15.063 -14.486,-15.353 -10.355,-0.374 -20.728,-0.187 -31.091,-0.362 -3.512,-0.059 -3.251,2.205 -3.247,4.517 0.038,22.598 0.09,45.195 0.081,67.793 -0.01,24.594 -0.024,49.188 -0.191,73.781 -0.022,3.189 0.972,5.325 3.373,7.367 6.841,5.816 13.349,12.029 20.255,17.763 4.269,3.544 9.062,6.291 15.109,4.691 5.049,-1.336 8.419,-4.287 9.336,-9.538 0.448,-2.567 0.731,-5.198 0.739,-7.802 0.064,-18.977 0.152,-37.955 -0.046,-56.93 -0.043,-4.132 1.561,-6.128 5.097,-7.986 11.66,-6.124 23.967,0.604 30.045,8.748 9.557,12.808 13.545,27.575 14.475,43.362 0.643,10.901 -0.177,21.637 -2.366,32.319 -2.092,10.213 -6.335,19.419 -12.648,27.662 -6.104,7.969 -16.257,9.955 -25.736,3.512 C 119.868,27.032 107.939,18.425 97.265,8.593 79.38,-7.881 62.684,-25.638 45.18,-42.538 30.562,-56.652 16.012,-70.912 0.499,-84.003 c -15.526,-13.102 -33.842,-15.207 -52.773,-8.175 -5.954,2.211 -11.747,5.693 -16.632,9.769 -10.643,8.882 -14.14,21.032 -13.521,34.563 0.304,6.65 1.246,13.121 4.358,19.165 5.949,11.553 16.275,16.791 28.2,19.646 11.15,2.67 22.362,5.084 33.536,7.656 1.696,0.39 3.365,0.951 4.997,1.564 9.282,3.487 11.795,6.839 11.592,16.595 -0.13,6.217 -0.27,12.544 -1.475,18.61 -3.369,16.958 -12.371,20.9 -28.365,18.356 -3.891,-0.618 -7.839,-2.507 -11.152,-4.721 -4.39,-2.935 -5.72,-8.024 -4.226,-12.154 1.566,-4.331 6.029,-7.345 11.105,-7.497 0.25,-0.007 0.5,0.007 0.75,0.004 2.189,-0.034 6.108,0.407 6.271,-0.185 0.724,-2.631 0.861,-5.653 0.328,-8.361 -2.708,-13.763 -12.934,-21.689 -27.346,-21.529 -16.806,0.186 -26.138,13.919 -21.195,31.057 3.017,10.461 10.677,16.654 19.779,21.3 15.685,8.007 32.509,9.921 49.889,8.824 12.249,-0.773 23.993,-3.215 34.801,-9.22 10.622,-5.902 17.535,-14.902 18.466,-26.961 1.102,-14.276 0.743,-28.665 1.007,-43.005 0.034,-1.854 0.005,-3.709 0.005,-6.816" /></g><g
           transform="translate(917.7963,337.8751)"
           id="g24"><path
             id="path26"
             style="fill:#ffffff;fill-opacity:1;fill-rule:nonzero;stroke:none"
             d="m 0,0 c -0.013,0 -0.026,0 -0.039,0 0,-9.11 -0.015,-18.221 0.004,-27.331 0.019,-9.11 -0.041,-18.224 0.208,-27.328 0.047,-1.739 0.882,-4.227 2.182,-5.034 6.997,-4.338 19.327,-3.097 25.833,2.072 9.02,7.166 13.624,17.028 16.764,27.677 3.569,12.101 4.41,24.591 3.533,37.084 C 47.402,22.573 44.311,37.423 34.635,50.294 27.155,60.243 16.26,64.002 4.595,59.767 1.418,58.613 -0.115,56.838 -0.079,53.163 0.096,35.444 0,17.721 0,0 m 0.367,-67.386 c -0.137,-2.39 -0.423,-5.07 -0.422,-7.75 0.009,-19.848 0.081,-39.697 0.113,-59.546 0.003,-1.745 -0.091,-3.494 -0.227,-5.235 -0.639,-8.188 -4.489,-12.988 -12.635,-13.632 -11.182,-0.884 -22.441,-0.803 -33.666,-1.136 -2.622,-0.078 -3.016,1.609 -3.013,3.701 0.008,6.866 -0.033,13.732 -0.033,20.598 0.006,66.914 0.039,133.827 -0.036,200.74 -0.004,3.434 0.706,4.859 4.513,4.747 8.984,-0.263 17.981,-0.046 26.972,-0.043 6.87,0.003 12.926,-1.544 16.103,-8.534 0.963,-2.12 2.285,-1.682 3.906,-0.629 8.705,5.654 18.298,9.211 28.438,11.057 21.381,3.892 40.289,-0.33 54.469,-18.069 9.012,-11.274 13.347,-24.67 14.392,-38.747 0.974,-13.13 1.222,-26.476 0.032,-39.568 -1.819,-20.015 -9.807,-37.412 -27.177,-49.014 -14.531,-9.706 -30.614,-11.721 -47.33,-7.294 -8.141,2.155 -15.984,5.433 -24.399,8.354" /></g><g
           transform="translate(257.7156,395.7097)"
           id="g28"><path
             id="path30"
             style="fill:#ffffff;fill-opacity:1;fill-rule:nonzero;stroke:none"
             d="M 0,0 C 3.056,2.467 5.119,4.205 7.258,5.847 22.93,17.877 40.283,24.544 60.31,21.401 77.737,18.666 88.952,5.88 89.163,-11.594 c 0.425,-35.309 0.521,-70.622 0.753,-105.933 0.019,-2.871 0.017,-5.743 0.077,-8.613 0.041,-2.001 -0.848,-3.088 -2.879,-3.031 -11.341,0.315 -22.718,0.222 -34.012,1.139 -7.449,0.605 -10.613,4.679 -11.354,12.131 -0.247,2.478 -0.221,4.988 -0.237,7.484 -0.183,27.716 -0.29,55.433 -0.587,83.148 -0.043,3.946 -0.413,8.064 -1.604,11.791 C 34.073,2.939 19.951,2.93 9.638,-2.8 6.815,-4.368 3.98,-6.142 1.709,-8.386 0.44,-9.639 -0.231,-12.048 -0.24,-13.941 -0.379,-41.783 -0.362,-69.627 -0.379,-97.47 c -0.006,-9.365 -0.066,-18.73 0.036,-28.093 0.027,-2.445 -0.533,-3.671 -3.275,-3.62 -9.616,0.179 -19.243,-0.036 -28.849,0.337 -11.225,0.436 -15.84,5.557 -15.864,16.865 -0.144,69.046 -0.283,138.091 -0.424,207.137 -0.003,1.591 0,3.182 0,5.207 7.171,0 13.888,0.013 20.605,-0.004 4.372,-0.011 8.751,0.088 13.114,-0.128 C -3.75,99.673 -0.946,96.21 -0.443,85.603 -0.071,77.753 -0.255,69.875 -0.269,62.009 -0.303,43.281 -0.391,24.552 -0.428,5.824 -0.431,4.275 -0.208,2.725 0,0" /></g><g
           transform="translate(466.9063,283.7237)"
           id="g32"><path
             id="path34"
             style="fill:#ffffff;fill-opacity:1;fill-rule:nonzero;stroke:none"
             d="m 0,0 c -3.47,-2.569 -6.189,-4.487 -8.807,-6.536 -12.998,-10.172 -27.759,-15.796 -44.224,-16.161 -20.239,-0.448 -35.551,13.648 -36.43,33.915 -0.779,17.943 -0.603,35.93 -0.751,53.898 -0.166,20.099 -0.157,40.199 -0.393,60.297 -0.037,3.147 0.901,4.057 4,3.965 9.735,-0.288 19.481,-0.185 29.217,-0.456 10.135,-0.282 15.515,-5.359 15.711,-15.604 0.363,-18.969 0.233,-37.948 0.35,-56.922 0.072,-11.61 -0.254,-23.251 0.551,-34.812 0.366,-5.268 2.296,-10.775 4.835,-15.46 3.768,-6.952 15.14,-8.784 23.579,-4.683 0.336,0.164 0.639,0.398 0.979,0.552 7.925,3.591 11.625,8.65 11.401,18.412 -0.798,34.689 -0.266,69.407 -0.41,104.113 -0.016,3.72 0.89,5.056 4.758,4.875 10.717,-0.503 21.473,-0.325 32.166,-1.086 6.936,-0.493 11.861,-6.671 11.859,-13.628 -0.018,-42.321 -0.111,-84.643 -0.066,-126.964 0.004,-3.623 -0.998,-5.163 -4.849,-5.062 -9.733,0.255 -19.483,-0.029 -29.206,0.392 -3.098,0.134 -6.361,1.379 -9.136,2.877 -3.801,2.051 -5.47,5.633 -4.91,10.091 C 0.341,-3.054 0.13,-2.079 0,0" /></g><g
           transform="translate(670.3602,306.4397)"
           id="g36"><path
             id="path38"
             style="fill:#ffffff;fill-opacity:1;fill-rule:nonzero;stroke:none"
             d="m 0,0 c 0,-1.939 0.007,-3.878 -0.001,-5.817 -0.042,-9.723 -0.175,-19.447 -0.078,-29.169 0.03,-2.954 -1.128,-4.033 -3.937,-4.004 -4.114,0.043 -8.236,-0.218 -12.344,-0.069 -4.123,0.15 -7.626,1.823 -9.269,5.828 -1.616,3.938 -0.618,7.461 2.397,10.556 7.457,7.655 14.815,15.406 22.213,23.119 C -0.679,0.296 -0.34,0.148 0,0" /></g><g
           transform="translate(669.9352,306.7841)"
           id="g40"><path
             id="path42"
             style="fill:none;stroke:#ffffff;stroke-width:2;stroke-linecap:round;stroke-linejoin:round;stroke-miterlimit:10;stroke-dasharray:none;stroke-opacity:1"
             d="M 0,0 C -0.625,-1.498 -1.249,-2.997 -1.874,-4.495" /></g></g></g></g></svg>